<?xml version="1.0" encoding="UTF-8"?>
<svg id="Laag_1" data-name="Laag 1" xmlns="http://www.w3.org/2000/svg" width="30" height="30" viewBox="0 0 30 30">
  <defs>
    <style>
      .cls-1 {
        fill: #000000;
        stroke-width: 0px;
      }
    </style>
  </defs>
  <path class="cls-1" d="m29.85,9.66C28.14-.6,30.89,1.86,20.39.23c-2.1-.32-4.12-.19-5.73,1.42C10.14,6.15,5.64,10.68,1.12,15.17c-1.37,1.36-1.57,2.63-.09,4.08,3.17,3.11,6.28,6.28,9.42,9.42,1.55,1.56,2.99,1.72,4.65.01,4.21-4.33,8.5-8.57,12.78-12.83,1.44-1.44,2.35-3.07,2.09-4.89-.05-.63-.05-.98-.11-1.32Zm-8.71,1.98c-2.13-.08-3.02-1.33-3.04-3.1-.01-1.88,1.22-3.04,3.03-2.95,1.71.09,2.98,1.09,2.9,3.09-.08,1.93-1.15,2.85-2.89,2.95Z"/>
</svg>